<?xml version="1.0" encoding="UTF-8" standalone="no"?>
<!-- Created with Inkscape (http://www.inkscape.org/) -->

<svg
   width="140.72453mm"
   height="127.99183mm"
   viewBox="0 0 140.72453 127.99183"
   version="1.1"
   id="svg1"
   xmlns="http://www.w3.org/2000/svg"
   xmlns:svg="http://www.w3.org/2000/svg">
  <defs
     id="defs1">
    <linearGradient
       id="swatch21">
      <stop
         style="stop-color:#000000;stop-opacity:1;"
         offset="0"
         id="stop21" />
    </linearGradient>
  </defs>
  <g
     id="layer1"
     style="display:inline"
     transform="translate(-4.3313457,-6.4173266)">
    <path
       style="fill:#C0E4E4;fill-opacity:1;stroke-width:0.36"
       d="M 48.604011,134.17079 C 26.782559,131.20274 9.2156915,114.86298 4.9770055,93.59129 c -0.86088,-4.3203 -0.86088,-13.83077 0,-18.15106 1.967617,-9.87442 6.7068175,-18.68913 13.9011535,-25.85556 7.067185,-7.039784 14.22428,-11.015764 24.987498,-13.881304 5.462037,-1.45418 10.183056,-3.74144 12.369898,-5.99302 0.927836,-0.9553 2.389383,-3.32888 3.871738,-6.28777 1.969246,-3.93076 2.85156,-5.2531 5.099396,-7.64256 4.495689,-4.77895 9.360484,-7.5112702 15.692144,-8.8135502 12.31051,-2.53198 25.602647,3.8986802 31.061277,15.0272702 2.03387,4.14647 2.65209,6.54612 3.03026,11.76202 0.36631,5.05248 0.89049,6.39408 3.55956,9.11057 1.61,1.6386 3.10477,2.63108 6.91408,4.59074 8.54567,4.396224 13.23523,8.919834 16.5856,15.998694 2.4546,5.1862 3.00626,7.6635 3.00626,13.5 0,5.83649 -0.55166,8.31379 -3.00626,13.5 -2.8514,6.02462 -7.61418,11.11098 -13.46012,14.37461 -3.04408,1.69942 -8.24138,3.3818 -11.83707,3.83167 -8.10096,1.01356 -14.66225,3.42243 -17.75763,5.31646 -0.70492,0.43133 -3.936067,2.2732 -6.558067,4.79307 -8.59035,8.25574 -17.07062,12.84564 -27.518916,14.89448 -3.570722,0.70019 -12.781627,0.98518 -16.313796,0.50474 z"
       id="path2140" />
  </g>
  <g
     id="g13"
     style="display:none;fill:none;fill-opacity:1;stroke:#a6cdc8;stroke-width:2.8;stroke-dasharray:none;stroke-opacity:1"
     transform="translate(-4.3313457,-6.4173266)">
    <path
       style="fill:none;fill-opacity:1;stroke:#a6cdc8;stroke-width:2.8;stroke-dasharray:none;stroke-opacity:1;paint-order:markers fill stroke"
       d="M 48.604011,134.17079 C 26.782559,131.20274 9.2156915,114.86298 4.9770055,93.59129 c -0.86088,-4.3203 -0.86088,-13.83077 0,-18.15106 1.967617,-9.87442 6.7068175,-18.68913 13.9011535,-25.85556 7.067185,-7.039784 14.22428,-11.015764 24.987498,-13.881304 5.462037,-1.45418 10.183056,-3.74144 12.369898,-5.99302 0.927836,-0.9553 2.389383,-3.32888 3.871738,-6.28777 1.969246,-3.93076 2.85156,-5.2531 5.099396,-7.64256 4.495689,-4.77895 9.360484,-7.5112702 15.692144,-8.8135502 12.31051,-2.53198 25.602647,3.8986802 31.061277,15.0272702 2.03387,4.14647 2.65209,6.54612 3.03026,11.76202 0.44591,6.150374 1.37653,9.021394 10.47364,13.70131 8.54567,4.396224 13.23523,8.919834 16.5856,15.998694 2.4546,5.1862 3.00626,7.6635 3.00626,13.5 0,5.83649 -0.55166,8.31379 -3.00626,13.5 -2.8514,6.02462 -7.61418,11.11098 -13.46012,14.37461 -3.04408,1.69942 -8.24138,3.3818 -11.83707,3.83167 -8.10096,1.01356 -14.66225,3.42243 -17.75763,5.31646 -0.70492,0.43133 -3.936067,2.2732 -6.558067,4.79307 -8.59035,8.25574 -17.07062,12.84564 -27.518916,14.89448 -3.570722,0.70019 -12.781627,0.98518 -16.313796,0.50474 z"
       id="path9" />
  </g>
</svg>
