<?xml version="1.0" encoding="UTF-8" standalone="no"?>
<!-- Created with Inkscape (http://www.inkscape.org/) -->

<svg
   width="143.55524mm"
   height="130.82085mm"
   viewBox="0 0 143.55524 130.82085"
   version="1.1"
   id="svg1"
   xmlns="http://www.w3.org/2000/svg"
   xmlns:svg="http://www.w3.org/2000/svg">
  <defs
     id="defs1">
    <linearGradient
       id="swatch21">
      <stop
         style="stop-color:#000000;stop-opacity:1;"
         offset="0"
         id="stop21" />
    </linearGradient>
  </defs>
  <g
     id="layer1"
     style="display:none"
     transform="translate(-2.9006247,-5.0130554)">
    <path
       style="fill:#c4e1df;fill-opacity:1;stroke-width:0.36"
       d="M 48.604011,134.17079 C 26.782559,131.20274 9.2156915,114.86298 4.9770055,93.59129 c -0.86088,-4.3203 -0.86088,-13.83077 0,-18.15106 1.967617,-9.87442 6.7068175,-18.68913 13.9011535,-25.85556 7.067185,-7.039784 14.22428,-11.015764 24.987498,-13.881304 5.462037,-1.45418 10.183056,-3.74144 12.369898,-5.99302 0.927836,-0.9553 2.389383,-3.32888 3.871738,-6.28777 1.969246,-3.93076 2.85156,-5.2531 5.099396,-7.64256 4.495689,-4.77895 9.360484,-7.5112702 15.692144,-8.8135502 12.31051,-2.53198 25.602647,3.8986802 31.061277,15.0272702 2.03387,4.14647 2.65209,6.54612 3.03026,11.76202 0.36631,5.05248 0.89049,6.39408 3.55956,9.11057 1.61,1.6386 3.10477,2.63108 6.91408,4.59074 8.54567,4.396224 13.23523,8.919834 16.5856,15.998694 2.4546,5.1862 3.00626,7.6635 3.00626,13.5 0,5.83649 -0.55166,8.31379 -3.00626,13.5 -2.8514,6.02462 -7.61418,11.11098 -13.46012,14.37461 -3.04408,1.69942 -8.24138,3.3818 -11.83707,3.83167 -8.10096,1.01356 -14.66225,3.42243 -17.75763,5.31646 -0.70492,0.43133 -3.936067,2.2732 -6.558067,4.79307 -8.59035,8.25574 -17.07062,12.84564 -27.518916,14.89448 -3.570722,0.70019 -12.781627,0.98518 -16.313796,0.50474 z m 55.439999,-23.73503 c 0.47475,-0.20401 0.53606,-0.31613 0.18,-0.32919 -0.297,-0.0109 -0.783,0.13725 -1.08,0.32919 -0.65807,0.42527 -0.0897,0.42527 0.9,0 z m 13.84162,-67.230004 c -0.68179,-0.7425 -1.36157,-1.5039 -1.51063,-1.692 -0.14904,-0.1881 -0.27099,-0.22907 -0.27099,-0.091 0,0.31521 2.52954,3.13303 2.81251,3.13303 0.1148,0 -0.3491,-0.6075 -1.03089,-1.35 z M 55.081464,31.959876 c 0.126121,-0.20407 -0.01839,-0.26442 -0.338754,-0.14148 -0.623671,0.23932 -0.73778,0.49736 -0.219946,0.49736 0.186315,0 0.437732,-0.16015 0.5587,-0.35588 z"
       id="path2140" />
    <path
       style="fill:#c4e1df;fill-opacity:1;stroke-width:0.264583"
       id="path4"
       d="m 54.939316,33.762844 c 0.02135,-0.124672 0.104042,-0.229251 0.185525,-0.321839 0.04187,-0.03847 0.07861,-0.08424 0.121082,-0.121905 0.01405,-0.01246 0.03067,-0.0217 0.04584,-0.03279 0.06076,-0.04437 0.05664,-0.04215 0.119626,-0.0919 0.142113,-0.09838 0.301961,-0.166364 0.454819,-0.245459 0.02355,-0.01225 0.04662,-0.02543 0.07064,-0.03671 0.09899,-0.04648 0.0356,-0.0075 0.135933,-0.06191 0.09163,-0.04972 0.180366,-0.103894 0.272716,-0.152558 0.165608,-0.09817 0.344181,-0.169821 0.518483,-0.250103 0.222194,-0.102341 0.01363,-0.01505 0.225949,-0.100984 0.257786,-0.100597 0.531685,-0.14147 0.80273,-0.18846 0.04329,-0.0064 0.08658,-0.01278 0.129868,-0.01916 0,0 -1.566402,-1.094988 -1.566402,-1.094988 v 0 c -0.03988,0.0089 -0.07975,0.01789 -0.119626,0.02683 -0.284009,0.05694 -0.574519,0.09846 -0.841896,0.215733 -0.248328,0.120065 -0.490295,0.253558 -0.746639,0.356944 -0.170682,0.07591 -0.343064,0.149069 -0.506899,0.239109 -0.160163,0.08252 -0.316693,0.172638 -0.46776,0.270841 -0.121539,0.07954 -0.239757,0.166172 -0.32604,0.285118 -0.08854,0.121102 -0.16736,0.24934 -0.247661,0.375896 z" />
    <path
       style="fill:#c4e1df;fill-opacity:1;stroke-width:0.264583"
       id="path5"
       d="m 120.22973,45.699417 c -0.24543,-0.229888 -0.51878,-0.427627 -0.77875,-0.640603 -0.16344,-0.133414 -0.31432,-0.281215 -0.47411,-0.418741 -0.0459,-0.03787 -0.0939,-0.07463 -0.13556,-0.117395 -0.0314,-0.03225 -0.0596,-0.06567 -0.0928,-0.09627 -0.0367,-0.03382 -0.0621,-0.07483 -0.0959,-0.111381 0,0 -1.80504,-0.789943 -1.80504,-0.789943 v 0 c 0.009,0.01887 0.0177,0.03988 0.0312,0.05635 0.006,0.0076 0.0156,0.01222 0.0213,0.02014 0.007,0.01016 0.0117,0.0222 0.0175,0.0333 0.008,0.01045 0.0161,0.0209 0.0241,0.03135 0.0287,0.03729 0.0287,0.04061 0.0651,0.07335 0.0139,0.01252 0.0302,0.02233 0.0434,0.03556 0.0149,0.01497 0.0265,0.03297 0.0407,0.04866 0.0207,0.02289 0.0733,0.07392 0.0947,0.09498 0.19539,0.153397 0.39442,0.302363 0.58417,0.462902 0.15158,0.12461 0.14315,0.118141 0.29559,0.241622 0.10746,0.08705 0.22431,0.17112 0.31978,0.272108 0.0106,0.01119 0.0184,0.02477 0.0275,0.03713 z" />
    <path
       style="fill:#c4e1df;fill-opacity:1;stroke-width:0.264583"
       id="path6"
       d="m 116.12737,41.589295 c 0.0103,0.0011 0.0211,-1.72e-4 0.0308,0.0032 0.0123,0.0042 0.0875,0.04877 0.0921,0.05139 0.0209,0.01206 0.0837,0.04807 0.0627,0.03608 -1.6509,-0.945473 -2.09715,-1.199489 -1.49836,-0.858528 0.12809,0.07148 0.23737,0.16841 0.34467,0.267017 0.0822,0.06288 0.14902,0.143293 0.22788,0.2095 0.036,0.01958 0.0597,0.05182 0.0874,0.08053 0.0305,0.03169 0.0622,0.06192 0.0923,0.09418 0.0915,0.08593 0.16479,0.188092 0.24246,0.286046 0.0737,0.09187 0.15124,0.180605 0.22622,0.271439 0.0753,0.07902 0.12968,0.174175 0.18725,0.266133 0.0222,0.04206 0.0598,0.07182 0.0895,0.107731 0.0119,0.01442 0.0215,0.0306 0.033,0.04532 0.0116,0.01484 0.0242,0.02889 0.0363,0.04333 0.0134,0.01767 0.0267,0.03536 0.0401,0.05304 0.0606,0.06709 0.10029,0.148521 0.1468,0.22502 0.0228,0.03744 0.0474,0.07376 0.0702,0.111156 0.06,0.100891 0.13457,0.191718 0.20107,0.288134 0.0688,0.09325 0.14419,0.181796 0.22447,0.265393 0.0124,0.01288 0.0253,0.02532 0.0373,0.03866 0.0931,0.104228 -0.0252,-0.02109 0.0711,0.08278 0.0357,0.03849 0.0719,0.07513 0.10571,0.115337 0.0483,0.06585 0.10733,0.122788 0.15957,0.185275 0.0327,0.03907 0.0634,0.07977 0.096,0.118895 0.0936,0.116433 0.18107,0.237652 0.26385,0.361977 0,0 1.76125,0.757666 1.76125,0.757666 v 0 c -0.0961,-0.112339 -0.17779,-0.235651 -0.25742,-0.360042 -0.0145,-0.02066 -0.0289,-0.04131 -0.0434,-0.06197 -0.0145,-0.01757 -0.0302,-0.0343 -0.0436,-0.05272 -0.0131,-0.01796 -0.0231,-0.03806 -0.036,-0.05623 -0.0327,-0.04619 -0.0737,-0.08512 -0.1088,-0.129257 -0.0337,-0.04274 -0.064,-0.08848 -0.10075,-0.128638 -0.01,-0.01093 -0.0662,-0.06508 -0.0759,-0.07602 -0.0129,-0.0146 -0.0241,-0.03063 -0.0361,-0.04594 -0.15369,-0.169122 0.0741,0.07916 -0.0818,-0.08295 -0.0515,-0.05359 -0.0987,-0.110722 -0.14896,-0.165563 -0.0914,-0.104576 0.0199,0.02679 -0.0676,-0.09018 -0.0112,-0.0149 -0.0255,-0.02728 -0.0366,-0.04217 -0.0121,-0.01619 -0.0211,-0.03467 -0.0332,-0.0509 -0.0241,-0.03232 -0.0552,-0.05915 -0.0765,-0.09381 -0.0507,-0.07253 -0.0259,-0.03526 -0.0743,-0.111901 -0.0123,-0.01802 -0.0273,-0.03419 -0.039,-0.05259 -0.037,-0.05792 -0.0634,-0.122581 -0.0979,-0.181927 -0.0117,-0.01601 -0.0235,-0.03202 -0.0352,-0.04803 -0.01,-0.01606 -0.0189,-0.03285 -0.03,-0.04822 -0.01,-0.01331 -0.0224,-0.0241 -0.0317,-0.0376 -0.01,-0.0141 -0.0154,-0.0307 -0.025,-0.04487 -0.019,-0.02801 -0.0404,-0.04656 -0.0644,-0.06998 -0.0343,-0.03503 -0.0712,-0.07968 -0.0984,-0.120515 -0.0328,-0.04935 -0.0557,-0.105529 -0.0913,-0.153238 -0.0779,-0.093 -0.1549,-0.186868 -0.23698,-0.276276 -0.0794,-0.09049 -0.15079,-0.185896 -0.21753,-0.286017 -0.0294,-0.03231 -0.0566,-0.06796 -0.0868,-0.09938 -0.009,-0.0096 -0.0209,-0.01675 -0.0301,-0.02652 -0.006,-0.006 -0.0468,-0.06124 -0.0511,-0.06702 -0.0807,-0.07268 0.0172,0.01265 -0.0748,-0.05806 -0.0545,-0.04186 -0.0303,-0.02959 -0.0822,-0.07774 -0.0147,-0.01365 -0.0308,-0.02582 -0.0462,-0.03872 -0.0155,-0.01495 -0.0309,-0.02991 -0.0464,-0.04487 -0.1205,-0.0977 -0.22744,-0.211222 -0.35387,-0.301675 -0.60851,-0.423712 -0.13626,-0.09793 -1.78938,-1.034362 -0.0341,-0.01934 -0.11383,-0.04554 -0.15251,-0.05438 -0.0384,-0.0088 -0.0786,-0.0087 -0.11665,-0.01963 z" />
    <path
       style="fill:#c4e1df;fill-opacity:1;stroke-width:0.264583"
       id="path7"
       d="m 105.11229,108.52177 c -0.17263,0.0399 -0.33755,0.10333 -0.49968,0.17379 -0.1859,0.0761 -0.37455,0.14506 -0.56066,0.22079 -0.18043,0.0841 -0.36986,0.14572 -0.56131,0.19934 -0.15758,0.0597 -0.32223,0.0966 -0.48252,0.14759 -0.0368,0.0237 -0.0816,0.0232 -0.12096,0.0387 -0.0498,0.0196 -0.0954,0.0483 -0.14345,0.0719 -0.30779,0.15101 0.16077,-0.0808 -0.14814,0.0723 -0.11779,0.05 -0.21943,0.12857 -0.33737,0.1789 -0.0953,0.0559 -0.17979,0.12692 -0.284,0.16552 -0.1165,0.056 -0.22945,0.11997 -0.34854,0.17029 -0.0969,0.0204 -0.17548,0.0772 -0.25677,0.12979 0,0 1.64438,1.06482 1.64438,1.06482 v 0 c 0.079,-0.043 0.16185,-0.0774 0.24317,-0.11581 0.11703,-0.0604 0.23658,-0.11547 0.35748,-0.1677 0.0952,-0.0562 0.18501,-0.12183 0.28511,-0.16951 0.10611,-0.0629 0.20834,-0.13234 0.31974,-0.18595 0.1317,-0.0631 0.2667,-0.11343 0.40694,-0.15411 0.15218,-0.0507 0.29997,-0.11401 0.45372,-0.16016 0.19844,-0.0606 0.39474,-0.12868 0.58641,-0.20828 0.17933,-0.0769 0.35704,-0.15809 0.5394,-0.22763 0.17119,-0.056 0.34603,-0.10211 0.52624,-0.11633 z" />
  </g>
  <g
     id="g13"
     style="display:inline;fill:none;fill-opacity:1;stroke:#a6cdc8;stroke-width:2.8;stroke-dasharray:none;stroke-opacity:1"
     transform="translate(-2.9006247,-5.0130554)">
    <path
       style="fill:none;fill-opacity:1;stroke:#a6cdc8;stroke-width:2.8;stroke-dasharray:none;stroke-opacity:1;paint-order:markers fill stroke"
       d="M 48.604011,134.17079 C 26.782559,131.20274 9.2156915,114.86298 4.9770055,93.59129 c -0.86088,-4.3203 -0.86088,-13.83077 0,-18.15106 1.967617,-9.87442 6.7068175,-18.68913 13.9011535,-25.85556 7.067185,-7.039784 14.22428,-11.015764 24.987498,-13.881304 5.462037,-1.45418 10.183056,-3.74144 12.369898,-5.99302 0.927836,-0.9553 2.389383,-3.32888 3.871738,-6.28777 1.969246,-3.93076 2.85156,-5.2531 5.099396,-7.64256 4.495689,-4.77895 9.360484,-7.5112702 15.692144,-8.8135502 12.31051,-2.53198 25.602647,3.8986802 31.061277,15.0272702 2.03387,4.14647 2.65209,6.54612 3.03026,11.76202 0.44591,6.150374 1.37653,9.021394 10.47364,13.70131 8.54567,4.396224 13.23523,8.919834 16.5856,15.998694 2.4546,5.1862 3.00626,7.6635 3.00626,13.5 0,5.83649 -0.55166,8.31379 -3.00626,13.5 -2.8514,6.02462 -7.61418,11.11098 -13.46012,14.37461 -3.04408,1.69942 -8.24138,3.3818 -11.83707,3.83167 -8.10096,1.01356 -14.66225,3.42243 -17.75763,5.31646 -0.70492,0.43133 -3.936067,2.2732 -6.558067,4.79307 -8.59035,8.25574 -17.07062,12.84564 -27.518916,14.89448 -3.570722,0.70019 -12.781627,0.98518 -16.313796,0.50474 z"
       id="path9" />
  </g>
</svg>
